<mxfile host="app.diagrams.net" modified="2022-06-14T15:15:55.288Z" agent="5.0 (Macintosh; Intel Mac OS X 10_15_7) AppleWebKit/537.36 (KHTML, like Gecko) Chrome/100.0.4896.60 Safari/537.36" etag="BiSWVq8kUyun-Dkn3SUH" version="18.1.3" type="github">
  <diagram id="6UvtVa7ITHga7FMxQCaC" name="Page-1">
    <mxGraphModel dx="1373" dy="712" grid="1" gridSize="10" guides="1" tooltips="1" connect="1" arrows="1" fold="1" page="1" pageScale="1" pageWidth="827" pageHeight="1169" math="0" shadow="0">
      <root>
        <mxCell id="0" />
        <mxCell id="1" parent="0" />
        <mxCell id="Yo_3gNuHQkyahzI8ZnH9-24" value="" style="rounded=1;whiteSpace=wrap;html=1;" vertex="1" parent="1">
          <mxGeometry x="30" y="20" width="740" height="1120" as="geometry" />
        </mxCell>
        <mxCell id="Yo_3gNuHQkyahzI8ZnH9-10" style="edgeStyle=orthogonalEdgeStyle;rounded=0;orthogonalLoop=1;jettySize=auto;html=1;exitX=0;exitY=1;exitDx=0;exitDy=0;exitPerimeter=0;" edge="1" parent="1" source="Yo_3gNuHQkyahzI8ZnH9-1" target="Yo_3gNuHQkyahzI8ZnH9-2">
          <mxGeometry relative="1" as="geometry" />
        </mxCell>
        <mxCell id="Yo_3gNuHQkyahzI8ZnH9-1" value="Actor" style="shape=umlActor;verticalLabelPosition=bottom;verticalAlign=top;html=1;outlineConnect=0;" vertex="1" parent="1">
          <mxGeometry x="140" y="80" width="30" height="60" as="geometry" />
        </mxCell>
        <mxCell id="Yo_3gNuHQkyahzI8ZnH9-11" style="edgeStyle=orthogonalEdgeStyle;rounded=0;orthogonalLoop=1;jettySize=auto;html=1;exitX=0.5;exitY=1;exitDx=0;exitDy=0;entryX=0.5;entryY=0;entryDx=0;entryDy=0;" edge="1" parent="1" source="Yo_3gNuHQkyahzI8ZnH9-2" target="Yo_3gNuHQkyahzI8ZnH9-3">
          <mxGeometry relative="1" as="geometry" />
        </mxCell>
        <mxCell id="Yo_3gNuHQkyahzI8ZnH9-2" value="Model Code" style="rounded=1;whiteSpace=wrap;html=1;" vertex="1" parent="1">
          <mxGeometry x="110" y="210" width="120" height="60" as="geometry" />
        </mxCell>
        <mxCell id="Yo_3gNuHQkyahzI8ZnH9-12" style="edgeStyle=orthogonalEdgeStyle;rounded=0;orthogonalLoop=1;jettySize=auto;html=1;exitX=0.5;exitY=1;exitDx=0;exitDy=0;entryX=0.5;entryY=0;entryDx=0;entryDy=0;entryPerimeter=0;" edge="1" parent="1" source="Yo_3gNuHQkyahzI8ZnH9-3" target="Yo_3gNuHQkyahzI8ZnH9-7">
          <mxGeometry relative="1" as="geometry" />
        </mxCell>
        <mxCell id="Yo_3gNuHQkyahzI8ZnH9-3" value="Minerva BYOM Template(&lt;i&gt;Inherited from Minerva Lite&lt;/i&gt;)" style="rounded=1;whiteSpace=wrap;html=1;" vertex="1" parent="1">
          <mxGeometry x="110" y="360" width="120" height="60" as="geometry" />
        </mxCell>
        <mxCell id="Yo_3gNuHQkyahzI8ZnH9-16" style="edgeStyle=orthogonalEdgeStyle;rounded=0;orthogonalLoop=1;jettySize=auto;html=1;entryX=0.5;entryY=0;entryDx=0;entryDy=0;" edge="1" parent="1" source="Yo_3gNuHQkyahzI8ZnH9-4" target="Yo_3gNuHQkyahzI8ZnH9-5">
          <mxGeometry relative="1" as="geometry" />
        </mxCell>
        <mxCell id="Yo_3gNuHQkyahzI8ZnH9-4" value="Package and Push to Docker Hub" style="rounded=1;whiteSpace=wrap;html=1;" vertex="1" parent="1">
          <mxGeometry x="110" y="650" width="120" height="60" as="geometry" />
        </mxCell>
        <mxCell id="Yo_3gNuHQkyahzI8ZnH9-18" style="edgeStyle=orthogonalEdgeStyle;rounded=0;orthogonalLoop=1;jettySize=auto;html=1;exitX=0.5;exitY=1;exitDx=0;exitDy=0;" edge="1" parent="1" source="Yo_3gNuHQkyahzI8ZnH9-5" target="Yo_3gNuHQkyahzI8ZnH9-9">
          <mxGeometry relative="1" as="geometry" />
        </mxCell>
        <mxCell id="Yo_3gNuHQkyahzI8ZnH9-5" value="CXU scan and certify" style="rounded=1;whiteSpace=wrap;html=1;" vertex="1" parent="1">
          <mxGeometry x="110" y="770" width="120" height="60" as="geometry" />
        </mxCell>
        <mxCell id="Yo_3gNuHQkyahzI8ZnH9-6" value="Deploy to BYOM OKE Clusters" style="rounded=1;whiteSpace=wrap;html=1;" vertex="1" parent="1">
          <mxGeometry x="100" y="1020" width="120" height="60" as="geometry" />
        </mxCell>
        <mxCell id="Yo_3gNuHQkyahzI8ZnH9-14" style="edgeStyle=orthogonalEdgeStyle;rounded=0;orthogonalLoop=1;jettySize=auto;html=1;entryX=0;entryY=0.5;entryDx=0;entryDy=0;entryPerimeter=0;" edge="1" parent="1" source="Yo_3gNuHQkyahzI8ZnH9-7" target="Yo_3gNuHQkyahzI8ZnH9-13">
          <mxGeometry relative="1" as="geometry" />
        </mxCell>
        <mxCell id="Yo_3gNuHQkyahzI8ZnH9-15" style="edgeStyle=orthogonalEdgeStyle;rounded=0;orthogonalLoop=1;jettySize=auto;html=1;exitX=0.5;exitY=1;exitDx=0;exitDy=0;exitPerimeter=0;entryX=0.5;entryY=0;entryDx=0;entryDy=0;" edge="1" parent="1" source="Yo_3gNuHQkyahzI8ZnH9-7" target="Yo_3gNuHQkyahzI8ZnH9-4">
          <mxGeometry relative="1" as="geometry" />
        </mxCell>
        <mxCell id="Yo_3gNuHQkyahzI8ZnH9-7" value="Validate the template code is successful" style="strokeWidth=2;html=1;shape=mxgraph.flowchart.decision;whiteSpace=wrap;" vertex="1" parent="1">
          <mxGeometry x="120" y="470" width="100" height="100" as="geometry" />
        </mxCell>
        <mxCell id="Yo_3gNuHQkyahzI8ZnH9-17" style="edgeStyle=orthogonalEdgeStyle;rounded=0;orthogonalLoop=1;jettySize=auto;html=1;entryX=0.5;entryY=1;entryDx=0;entryDy=0;entryPerimeter=0;" edge="1" parent="1" source="Yo_3gNuHQkyahzI8ZnH9-9" target="Yo_3gNuHQkyahzI8ZnH9-13">
          <mxGeometry relative="1" as="geometry" />
        </mxCell>
        <mxCell id="Yo_3gNuHQkyahzI8ZnH9-19" style="edgeStyle=orthogonalEdgeStyle;rounded=0;orthogonalLoop=1;jettySize=auto;html=1;exitX=0.5;exitY=1;exitDx=0;exitDy=0;exitPerimeter=0;entryX=0.5;entryY=0;entryDx=0;entryDy=0;" edge="1" parent="1" source="Yo_3gNuHQkyahzI8ZnH9-9" target="Yo_3gNuHQkyahzI8ZnH9-6">
          <mxGeometry relative="1" as="geometry" />
        </mxCell>
        <mxCell id="Yo_3gNuHQkyahzI8ZnH9-9" value="Is Image Valid ?" style="strokeWidth=2;html=1;shape=mxgraph.flowchart.decision;whiteSpace=wrap;" vertex="1" parent="1">
          <mxGeometry x="110" y="870" width="100" height="100" as="geometry" />
        </mxCell>
        <mxCell id="Yo_3gNuHQkyahzI8ZnH9-23" style="edgeStyle=orthogonalEdgeStyle;rounded=0;orthogonalLoop=1;jettySize=auto;html=1;entryX=1;entryY=0.3333333333333333;entryDx=0;entryDy=0;entryPerimeter=0;" edge="1" parent="1" source="Yo_3gNuHQkyahzI8ZnH9-13" target="Yo_3gNuHQkyahzI8ZnH9-1">
          <mxGeometry relative="1" as="geometry">
            <Array as="points">
              <mxPoint x="595" y="100" />
            </Array>
          </mxGeometry>
        </mxCell>
        <mxCell id="Yo_3gNuHQkyahzI8ZnH9-13" value="" style="verticalLabelPosition=bottom;verticalAlign=top;html=1;shape=mxgraph.flowchart.or;" vertex="1" parent="1">
          <mxGeometry x="560" y="485" width="70" height="70" as="geometry" />
        </mxCell>
        <mxCell id="Yo_3gNuHQkyahzI8ZnH9-20" value="No" style="text;html=1;align=center;verticalAlign=middle;resizable=0;points=[];autosize=1;strokeColor=none;fillColor=none;" vertex="1" parent="1">
          <mxGeometry x="345" y="500" width="30" height="20" as="geometry" />
        </mxCell>
        <mxCell id="Yo_3gNuHQkyahzI8ZnH9-21" value="Yes" style="text;html=1;align=center;verticalAlign=middle;resizable=0;points=[];autosize=1;strokeColor=none;fillColor=none;" vertex="1" parent="1">
          <mxGeometry x="170" y="600" width="40" height="20" as="geometry" />
        </mxCell>
        <mxCell id="Yo_3gNuHQkyahzI8ZnH9-22" value="No" style="text;html=1;align=center;verticalAlign=middle;resizable=0;points=[];autosize=1;strokeColor=none;fillColor=none;" vertex="1" parent="1">
          <mxGeometry x="365" y="890" width="30" height="20" as="geometry" />
        </mxCell>
        <mxCell id="Yo_3gNuHQkyahzI8ZnH9-25" value="Minerva BYOM Flow" style="text;html=1;strokeColor=none;fillColor=none;align=center;verticalAlign=middle;whiteSpace=wrap;rounded=0;" vertex="1" parent="1">
          <mxGeometry x="287" y="30" width="186" height="30" as="geometry" />
        </mxCell>
      </root>
    </mxGraphModel>
  </diagram>
</mxfile>
